<svg width="376" height="660" viewBox="0 0 376 660" fill="none" xmlns="http://www.w3.org/2000/svg">
<g clip-path="url(#clip0_41_3526)">
<path fill-rule="evenodd" clip-rule="evenodd" d="M56.3896 840.533C0.117936 803.642 10.2796 719.341 -16.1366 657.457C-41.9464 596.994 -112.067 546.449 -96.4004 482.601C-80.694 418.593 7.59729 409.07 55.8331 364.159C105.387 318.02 124.26 237.933 188.7 217.15C256.74 195.205 340.039 208.603 394.484 254.936C446.966 299.599 430.576 383.136 458.025 446.347C485.066 508.622 559.861 553.126 553.31 620.702C546.707 688.816 481.86 735.701 426.125 775.41C375.387 811.559 314.916 823.457 253.561 834.264C187.176 845.956 112.762 877.489 56.3896 840.533Z" stroke="#F5F5F5" stroke-width="1.92417"/>
<path fill-rule="evenodd" clip-rule="evenodd" d="M74.6038 810.737C24.1185 777.64 33.2353 702.007 9.53543 646.487C-13.6204 592.242 -76.5307 546.893 -62.4749 489.612C-48.3836 432.185 30.8288 423.642 74.1045 383.348C118.563 341.954 135.495 270.102 193.309 251.456C254.352 231.768 329.086 243.789 377.932 285.357C425.017 325.427 410.313 400.374 434.939 457.085C459.2 512.956 526.304 552.884 520.426 613.511C514.502 674.621 456.323 716.685 406.32 752.311C360.798 784.743 306.546 795.417 251.5 805.113C191.942 815.603 125.18 843.893 74.6038 810.737Z" stroke="#F5F5F5" stroke-width="1.92417"/>
<path fill-rule="evenodd" clip-rule="evenodd" d="M38.4608 869.861C-23.5066 829.237 -12.3164 736.403 -41.4064 668.255C-69.8286 601.672 -147.047 546.011 -129.794 475.701C-112.498 405.214 -15.2702 394.727 37.848 345.27C92.418 294.461 113.201 206.268 184.163 183.381C259.09 159.215 350.821 173.969 410.776 224.992C468.57 274.175 450.522 366.167 480.749 435.777C510.528 504.355 592.893 553.364 585.679 627.779C578.408 702.788 506.996 754.418 445.62 798.147C389.746 837.956 323.155 851.057 255.59 862.958C182.486 875.834 100.539 910.558 38.4608 869.861Z" stroke="#F5F5F5" stroke-width="1.92417"/>
<path fill-rule="evenodd" clip-rule="evenodd" d="M19.3671 901.096C-48.6661 856.495 -36.3805 754.573 -68.318 679.755C-99.5225 606.655 -184.299 545.544 -165.358 468.352C-146.369 390.965 -39.6234 379.452 18.6943 325.153C78.606 269.371 101.423 172.545 179.332 147.417C261.593 120.886 362.303 137.085 428.127 193.102C491.579 247.1 471.764 348.097 504.949 424.52C537.643 499.811 628.071 553.617 620.151 635.317C612.168 717.668 533.766 774.353 466.382 822.361C405.039 866.067 331.929 880.451 257.75 893.516C177.49 907.653 87.5224 945.776 19.3671 901.096Z" stroke="#F5F5F5" stroke-width="1.92417"/>
</g>
<defs>
<clipPath id="clip0_41_3526">
<rect width="375.213" height="716.754" fill="white"/>
</clipPath>
</defs>
</svg>
