<?xml version="1.0" encoding="UTF-8" standalone="no"?>
<svg
   width="78"
   height="76"
   viewBox="0 0 78 76"
   fill="none"
   version="1.1"
   id="svg2"
   sodipodi:docname="dialogSuccess.svg"
   xmlns:inkscape="http://www.inkscape.org/namespaces/inkscape"
   xmlns:sodipodi="http://sodipodi.sourceforge.net/DTD/sodipodi-0.dtd"
   xmlns="http://www.w3.org/2000/svg"
   xmlns:svg="http://www.w3.org/2000/svg">
  <defs
     id="defs2" />
  <sodipodi:namedview
     id="namedview2"
     pagecolor="#ffffff"
     bordercolor="#000000"
     borderopacity="0.25"
     inkscape:showpageshadow="2"
     inkscape:pageopacity="0.0"
     inkscape:pagecheckerboard="0"
     inkscape:deskcolor="#d1d1d1" />
  <path
     d="M30.7847 4.91555C34.7701 -0.50375 43.1471 -0.503751 47.1325 4.91555L47.3885 5.26375C49.6149 8.29113 53.4587 9.81865 57.2643 9.18831L57.702 9.11581C64.5143 7.98744 70.4377 13.6703 69.2616 20.206L69.186 20.6259C68.529 24.2769 70.1212 27.9647 73.2767 30.1006L73.6396 30.3463C79.2883 34.1699 79.2883 42.2066 73.6396 46.0302L73.2767 46.2758C70.1212 48.4118 68.529 52.0996 69.186 55.7506L69.2616 56.1705C70.4377 62.7062 64.5143 68.389 57.702 67.2607L57.2643 67.1882C53.4587 66.5578 49.6149 68.0854 47.3885 71.1127L47.1325 71.4609C43.1471 76.8802 34.7701 76.8802 30.7847 71.4609L30.5287 71.1127C28.3023 68.0854 24.4584 66.5578 20.6529 67.1882L20.2152 67.2607C13.4029 68.389 7.47945 62.7062 8.65558 56.1705L8.73115 55.7506C9.38817 52.0996 7.79599 48.4118 4.64047 46.2758L4.27753 46.0302C-1.37116 42.2066 -1.37116 34.1699 4.27753 30.3463L4.64047 30.1006C7.79599 27.9647 9.38817 24.2769 8.73115 20.6259L8.65558 20.206C7.47945 13.6703 13.4029 7.98744 20.2152 9.11581L20.6529 9.18831C24.4584 9.81865 28.3023 8.29113 30.5287 5.26375L30.7847 4.91555Z"
     fill="#B9E5D1"
     id="path1" />
  <path
     d="M53.249 25.9869C54.0501 25.2184 55.3435 25.2184 56.1445 25.9869C56.954 26.7636 56.9538 28.0295 56.1445 28.8063L33.6514 50.3864C33.3142 50.7116 32.8727 50.9095 32.4062 50.9537L32.2051 50.9625H32.1973C31.655 50.9599 31.1331 50.7521 30.7461 50.3756L21.749 41.61C20.9442 40.8272 20.9561 39.5614 21.7705 38.7906H21.7715C22.5774 38.0307 23.8721 38.0373 24.666 38.8121H24.665L32.2139 46.1686L53.249 25.9869Z"
     fill="#08B783"
     stroke="#08B783"
     stroke-width="0.73413"
     id="path2" />
</svg>
