<?xml version="1.0" encoding="UTF-8" standalone="no"?>
<svg
   width="78"
   height="75"
   viewBox="0 0 78 75"
   fill="none"
   version="1.1"
   id="svg3"
   sodipodi:docname="dialogFaliure.svg"
   xmlns:inkscape="http://www.inkscape.org/namespaces/inkscape"
   xmlns:sodipodi="http://sodipodi.sourceforge.net/DTD/sodipodi-0.dtd"
   xmlns="http://www.w3.org/2000/svg"
   xmlns:svg="http://www.w3.org/2000/svg">
  <defs
     id="defs3" />
  <sodipodi:namedview
     id="namedview3"
     pagecolor="#ffffff"
     bordercolor="#000000"
     borderopacity="0.25"
     inkscape:showpageshadow="2"
     inkscape:pageopacity="0.0"
     inkscape:pagecheckerboard="0"
     inkscape:deskcolor="#d1d1d1" />
  <path
     d="M30.7437 4.06447C34.7291 -1.35482 43.1061 -1.35483 47.0914 4.06447L47.3475 4.41268C49.5739 7.44006 53.4177 8.96758 57.2233 8.33724L57.661 8.26474C64.4733 7.13637 70.3967 12.8192 69.2206 19.3549L69.145 19.7748C68.488 23.4259 70.0802 27.1136 73.2357 29.2496L73.5986 29.4952C79.2473 33.3188 79.2473 41.3556 73.5986 45.1791L73.2357 45.4248C70.0802 47.5607 68.488 51.2485 69.145 54.8995L69.2206 55.3194C70.3967 61.8551 64.4733 67.538 57.661 66.4096L57.2233 66.3371C53.4177 65.7068 49.5739 67.2343 47.3475 70.2617L47.0914 70.6099C43.1061 76.0292 34.7291 76.0292 30.7437 70.6099L30.4876 70.2617C28.2613 67.2343 24.4174 65.7068 20.6119 66.3371L20.1742 66.4096C13.3618 67.538 7.43844 61.8551 8.61457 55.3194L8.69014 54.8995C9.34716 51.2485 7.75498 47.5607 4.59946 45.4248L4.23651 45.1791C-1.41217 41.3556 -1.41217 33.3188 4.23651 29.4952L4.59946 29.2496C7.75498 27.1136 9.34716 23.4259 8.69014 19.7748L8.61457 19.3549C7.43844 12.8192 13.3618 7.13637 20.1742 8.26474L20.6119 8.33724C24.4174 8.96758 28.2613 7.44005 30.4876 4.41268L30.7437 4.06447Z"
     fill="#FF0009"
     fill-opacity="0.2"
     id="path1" />
  <path
     d="M49.75 25.25L27.25 47.75"
     stroke="#FF0009"
     stroke-width="3.75"
     stroke-linecap="round"
     stroke-linejoin="round"
     id="path2" />
  <path
     d="M27.25 25.25L49.75 47.75"
     stroke="#FF0009"
     stroke-width="3.75"
     stroke-linecap="round"
     stroke-linejoin="round"
     id="path3" />
</svg>
